<?xml version="1.0" encoding="UTF-8"?><svg id="Layer_2" xmlns="http://www.w3.org/2000/svg" viewBox="0 0 80 80"><defs><style>.cls-1{fill:#00b8a9;stroke-width:0px;}</style></defs><g id="Toolbar_Icons"><path class="cls-1" d="m78.01,1.01c-1.03-.78-2.27-1.08-3.46-.97-.12,0-.24-.04-.36-.04H5.81c-.13,0-.24.03-.37.04-1.19-.11-2.43.19-3.46.97C-.22,2.67-.65,5.81,1.01,8.01l25.67,34.02v32.97c0,2.5,1.84,4.55,4.24,4.92.22.04.45.06.68.07.03,0,.06,0,.09,0,0,0,.01,0,.02,0,.02,0,.03,0,.05,0,.87,0,1.74-.23,2.54-.7l16.28-9.64c1.63-.82,2.76-2.5,2.76-4.45v-23.18l25.67-34.02c1.66-2.2,1.22-5.34-.98-7Zm-33.68,36.33c-.04.05-.06.11-.1.16-.07.1-.12.2-.19.31-.11.18-.21.36-.29.54-.05.11-.08.22-.12.34-.07.19-.14.39-.18.58-.03.12-.04.25-.06.38-.03.2-.05.39-.06.59,0,.04-.01.08-.01.13v21.96l-6.65,3.94v-25.9s-.01-.09-.01-.13c0-.2-.03-.39-.06-.58-.02-.13-.03-.26-.06-.38-.04-.2-.11-.39-.18-.58-.04-.11-.07-.23-.12-.34-.08-.19-.19-.36-.29-.54-.06-.1-.12-.21-.19-.31-.04-.05-.06-.11-.1-.16L15.04,10h49.93l-20.63,27.34Z"/></g></svg>