<?xml version="1.0" encoding="UTF-8"?><svg id="Layer_2" xmlns="http://www.w3.org/2000/svg" viewBox="0 0 123.19 104.02"><defs><style>.cls-1{fill:#fff;stroke-width:0px;}</style></defs><g id="Toolbar_Icons"><path class="cls-1" d="m102.82,45.96h-49c-3.87,0-7-3.13-7-7s3.13-7,7-7h49c3.87,0,7,3.13,7,7s-3.13,7-7,7Z"/><path class="cls-1" d="m116.19,19.85h-62.37c-3.87,0-7-3.13-7-7s3.13-7,7-7h62.37c3.87,0,7,3.13,7,7s-3.13,7-7,7Z"/><path class="cls-1" d="m89.46,72.07h-35.64c-3.87,0-7-3.13-7-7s3.13-7,7-7h35.64c3.87,0,7,3.13,7,7s-3.13,7-7,7Z"/><path class="cls-1" d="m76.09,98.18h-22.27c-3.87,0-7-3.13-7-7s3.13-7,7-7h22.27c3.87,0,7,3.13,7,7s-3.13,7-7,7Z"/><path class="cls-1" d="m28.89,72.21h-4.44V7c0-3.87-3.13-7-7-7s-7,3.13-7,7v65.21h-4.44c-4.62,0-7.51,5-5.2,9l11.44,19.81c2.31,4,8.08,4,10.39,0l11.44-19.81c2.31-4-.58-9-5.2-9Z"/></g></svg>