<?xml version="1.0" encoding="UTF-8" standalone="no"?>
<!-- Created with Inkscape (http://www.inkscape.org/) -->

<svg
   version="1.1"
   id="svg1"
   width="75.704102"
   height="75.704224"
   viewBox="0 0 75.704104 75.704224"
   xmlns="http://www.w3.org/2000/svg"
   xmlns:svg="http://www.w3.org/2000/svg">
  <defs
     id="defs1">
    <clipPath
       clipPathUnits="userSpaceOnUse"
       id="clipPath96-9-1">
      <path
         d="M 0,768 H 1366 V 0 H 0 Z"
         transform="translate(-768.51759,-472.93731)"
         id="path96-7-2" />
    </clipPath>
    <clipPath
       clipPathUnits="userSpaceOnUse"
       id="clipPath96-9-1-9">
      <path
         d="M 0,768 H 1366 V 0 H 0 Z"
         transform="translate(-768.51759,-472.93731)"
         id="path96-7-2-0" />
    </clipPath>
  </defs>
  <g
     id="layer-MC1"
     transform="translate(-6454.9063,-712.93695)">
    <g
       id="layer1">
      <path
         id="path95-8-1"
         d="m 0,0 h -62.367 c -3.866,0 -7,3.134 -7,7 0,3.866 3.134,7 7,7 H 0 C 3.866,14 7,10.866 7,7 7,3.134 3.866,0 0,0"
         style="fill:#5f5f5f;fill-opacity:1;fill-rule:nonzero;stroke:none"
         transform="matrix(-0.94280902,0.94280902,0.75424719,0.75424719,6458.0791,774.90942)"
         clip-path="url(#clipPath96-9-1)" />
      <path
         id="path95-8-1-3"
         d="m 0,0 h -62.367 c -3.866,0 -7,3.134 -7,7 0,3.866 3.134,7 7,7 H 0 C 3.866,14 7,10.866 7,7 7,3.134 3.866,0 0,0"
         style="fill:#5f5f5f;fill-opacity:1;fill-rule:nonzero;stroke:none"
         transform="matrix(0.94280902,0.94280902,0.75424719,-0.75424719,6516.8792,785.46889)"
         clip-path="url(#clipPath96-9-1-9)" />
    </g>
  </g>
</svg>
