<svg xmlns="http://www.w3.org/2000/svg" viewBox="0 0 102.07 102.07"><defs><style>.cls-1{fill:#bdbdbd;}.cls-2{fill:none;stroke:#bdbdbd;stroke-linecap:round;stroke-linejoin:round;stroke-width:14px;}</style></defs><g id="Layer_2" data-name="Layer 2"><g id="Edit"><path class="cls-1" d="M93.06,24.58l8.14-8.14c1.64-1.63.9-5-1.65-7.57L93.2,2.52C90.65,0,87.26-.77,85.63.87L77.49,9Z"/><path class="cls-1" d="M74.09,12.4,26.58,59.91a2.53,2.53,0,0,0-.69,1.53L24.8,71.88c-.29,2.68,2.71,5.68,5.39,5.39l10.44-1.09a2.53,2.53,0,0,0,1.53-.69L89.67,28Z"/><path class="cls-2" d="M59.8,7.07h-44A8.8,8.8,0,0,0,7,15.87v70.4a8.8,8.8,0,0,0,8.8,8.8H86.2a8.8,8.8,0,0,0,8.8-8.8V42.49"/></g></g></svg>