<?xml version="1.0" encoding="UTF-8"?><svg id="Layer_2" xmlns="http://www.w3.org/2000/svg" viewBox="0 0 72 95.95"><defs><style>.cls-1{fill:#bdbdbd;}</style></defs><g id="Garbage_Can"><g><path class="cls-1" d="M67,8.27h-13.03V2.5c0-1.38-1.12-2.5-2.5-2.5H20.53c-1.38,0-2.5,1.12-2.5,2.5v5.77H5c-2.76,0-5,2.24-5,5v3.58H72v-3.58c0-2.76-2.24-5-5-5ZM23.03,5h25.94v3.27H23.03v-3.27Z"/><path class="cls-1" d="M7.45,91.87c.24,2.31,2.52,4.08,5.26,4.08H59.29c2.74,0,5.02-1.77,5.26-4.08l7.45-72.17H0L7.45,91.87Zm42.37-7.14l5.62-54.33c.14-1.37,1.36-2.38,2.74-2.23,1.37,.14,2.37,1.37,2.23,2.74l-5.62,54.33c-.13,1.29-1.22,2.24-2.48,2.24-.09,0-.17,0-.26-.01-1.37-.14-2.37-1.37-2.23-2.74Zm-15.76-54.07c0-1.38,1.12-2.5,2.5-2.5s2.5,1.12,2.5,2.5v54.33c0,1.38-1.12,2.5-2.5,2.5s-2.5-1.12-2.5-2.5V30.66Zm-19.13-2.49c1.38-.16,2.6,.86,2.74,2.23l5.62,54.33c.14,1.37-.86,2.6-2.23,2.74-.09,0-.17,.01-.26,.01-1.27,0-2.35-.96-2.48-2.24L12.7,30.92c-.14-1.37,.86-2.6,2.23-2.74Z"/></g></g></svg>