<?xml version="1.0" encoding="UTF-8"?><svg id="Layer_2" xmlns="http://www.w3.org/2000/svg" viewBox="0 0 72 98.95"><defs><style>.cls-1{fill:#bdbdbd;}</style></defs><g id="Garbage_Can"><path class="cls-1" d="M67,9.27h-13.03V2.5c0-1.38-1.12-2.5-2.5-2.5H20.53c-1.38,0-2.5,1.12-2.5,2.5v6.77H5c-2.76,0-5,2.24-5,5v3.58H72v-3.58c0-2.76-2.24-5-5-5ZM24.03,4h23.94v5.27H24.03V4Z"/><path class="cls-1" d="M0,22.7L7.45,94.87c.24,2.31,2.52,4.08,5.26,4.08H59.29c2.74,0,5.02-1.77,5.26-4.08l7.45-72.17H0ZM57.81,88.95c-.18,1.91-1.93,3.37-4.02,3.37H18.21c-2.09,0-3.84-1.46-4.02-3.37L8.5,29.33H63.5l-5.69,59.63Z"/><rect class="cls-1" x="32.5" y="33.83" width="7" height="54" rx="3.5" ry="3.5"/><path class="cls-1" d="M22.5,87.95h0c-1.93,0-3.5-1.57-3.5-3.5l-3-47c0-1.93,1.57-3.5,3.5-3.5h0c1.93,0,3.5,1.57,3.5,3.5l3,47c0,1.93-1.57,3.5-3.5,3.5Z"/><path class="cls-1" d="M49.5,87.95h0c-1.93,0-3.5-1.57-3.5-3.5l3-47c0-1.93,1.57-3.5,3.5-3.5h0c1.93,0,3.5,1.57,3.5,3.5l-3,47c0,1.93-1.57,3.5-3.5,3.5Z"/></g></svg>