<?xml version="1.0" encoding="UTF-8"?><svg id="Layer_2" xmlns="http://www.w3.org/2000/svg" viewBox="0 0 68 97.4"><defs><style>.cls-1{fill:#bdbdbd;}</style></defs><g id="Garbage_Can"><path class="cls-1" d="M63.28,11.75h-10.31V2.36c0-1.3-1.06-2.36-2.36-2.36H17.39c-1.3,0-2.36,1.06-2.36,2.36V11.75H4.72c-2.61,0-4.72,2.11-4.72,4.72v5.27H68v-5.27c0-2.61-2.11-4.72-4.72-4.72ZM22.7,5.78h22.61v5.97H22.7V5.78Z"/><path class="cls-1" d="M0,25.39L7.04,93.54c.23,2.18,2.38,3.86,4.97,3.86H55.99c2.59,0,4.74-1.67,4.97-3.86l7.04-68.16H0Zm51.71,59.68c-.17,1.8-1.82,3.19-3.79,3.19H20.09c-1.98,0-3.62-1.38-3.79-3.19l-5.38-50.54H57.08l-5.38,50.54Z"/><rect class="cls-1" x="31.03" y="37.37" width="5.95" height="48.06" rx="2.97" ry="2.97"/><path class="cls-1" d="M23.53,85.54h0c-1.64,0-2.97-1.39-2.97-3.11l-2.55-41.83c0-1.72,1.33-3.11,2.97-3.11h0c1.64,0,2.97,1.39,2.97,3.11l2.55,41.83c0,1.72-1.33,3.11-2.97,3.11Z"/><path class="cls-1" d="M44.48,85.54h0c-1.64,0-2.97-1.39-2.97-3.11l2.55-41.83c0-1.72,1.33-3.11,2.97-3.11h0c1.64,0,2.97,1.39,2.97,3.11l-2.55,41.83c0,1.72-1.33,3.11-2.97,3.11Z"/></g></svg>