<?xml version="1.0" encoding="UTF-8"?><svg id="Layer_2" xmlns="http://www.w3.org/2000/svg" viewBox="0 0 580 580"><defs><style>.cls-1{stroke-width:0px;}</style></defs><g id="Layer_1-2"><path id="Petals" class="cls-1" d="m441.14,290c5.44-1.81,10.87-3.77,16.25-6,55.45-22.97,97.71-64.35,122.61-114.12-52.8-17.59-111.94-16.97-167.39,6-5.38,2.23-10.6,4.68-15.73,7.25,2.57-5.13,5.02-10.35,7.25-15.73C427.09,111.94,427.71,52.8,410.12,0c-49.77,24.9-91.15,67.15-114.12,122.61-2.23,5.38-4.19,10.81-6,16.25-1.81-5.44-3.77-10.87-6-16.25C261.03,67.15,219.65,24.9,169.88,0c-17.59,52.8-16.97,111.94,6,167.39,2.23,5.38,4.68,10.6,7.25,15.73-5.13-2.57-10.35-5.02-15.73-7.25C111.94,152.91,52.8,152.29,0,169.88c24.9,49.77,67.15,91.15,122.61,114.12,5.38,2.23,10.81,4.19,16.25,6-5.44,1.81-10.87,3.77-16.25,6-55.45,22.97-97.71,64.35-122.61,114.12,52.8,17.59,111.94,16.97,167.39-6,5.38-2.23,10.6-4.68,15.73-7.25-2.57,5.13-5.02,10.35-7.25,15.73-22.97,55.45-23.59,114.59-6,167.39,49.77-24.9,91.15-67.15,114.12-122.61,2.23-5.38,4.19-10.81,6-16.25,1.81,5.44,3.77,10.87,6,16.25,22.97,55.45,64.35,97.71,114.12,122.61,17.59-52.8,16.97-111.94-6-167.39-2.23-5.38-4.68-10.6-7.25-15.73,5.13,2.57,10.35,5.02,15.73,7.25,55.45,22.97,114.59,23.59,167.39,6-24.9-49.77-67.15-91.15-122.61-114.12-5.38-2.23-10.81-4.19-16.25-6Z"/></g></svg>