<?xml version="1.0" encoding="UTF-8" standalone="no"?>
<!-- Created with Inkscape (http://www.inkscape.org/) -->

<svg
   version="1.1"
   id="svg1"
   width="266.26587"
   height="133.73309"
   viewBox="0 0 266.26588 133.73309"
   xmlns="http://www.w3.org/2000/svg"
   xmlns:svg="http://www.w3.org/2000/svg">
  <defs
     id="defs1" />
  <g
     id="layer-MC1"
     transform="translate(-5693.7015,-774.67982)">
    <g
       id="layer6">
      <path
         d="m 5748.968,841.81302 c -11.7333,17.86662 -30.6666,33.99991 -47.4665,43.19989 -1.8667,0.93333 -2.8,2.66666 -2.8,4.53332 0,0.93333 0.2667,2 0.8,2.93333 1.3333,2.13332 3.0667,2.93332 4.6667,2.93332 1.0666,0 1.9999,-0.26666 2.9333,-0.8 18.3999,-10.26664 37.0665,-29.33325 47.7332,-46.53321 -0.5333,4.26666 -1.0667,9.99997 -1.0667,15.59996 v 36.13324 c 0,2.4 2.2667,3.59999 5.0667,3.59999 3.0666,0 5.0666,-1.19999 5.0666,-3.59999 v -36.7999 c 0,-5.73332 -0.5333,-11.19998 -1.0666,-15.3333 11.7333,19.46662 31.0666,36.93324 50.1332,46.66655 0.9333,0.53333 1.8666,0.8 2.8,0.8 1.8666,0 3.6,-0.93333 4.8,-3.2 0.4,-0.93333 0.6666,-1.86666 0.6666,-2.93332 0,-2 -0.9333,-3.86666 -2.5333,-4.66666 -17.4666,-7.86664 -36.9332,-23.0666 -49.7332,-42.53322 h 46.6665 c 2.4,0 3.7334,-2.26666 3.7334,-4.93332 0,-2.79999 -1.3334,-4.79999 -3.7334,-4.79999 h -51.7332 v -23.33327 h 44.3999 c 2.5333,0 3.7333,-2.13333 3.7333,-4.93332 0,-2.66666 -1.2,-4.66666 -3.7333,-4.66666 h -44.3999 V 783.5465 c 0,-2.53333 -2,-3.86666 -5.0666,-3.86666 -2.9333,0 -5.0667,1.33333 -5.0667,3.86666 v 15.59996 h -41.8665 c -2.4,0 -3.7334,2 -3.7334,4.66666 0,2.79999 1.3334,4.93332 3.7334,4.93332 h 41.8665 v 23.33327 h -49.1998 c -2.4,0 -3.7334,2 -3.7334,4.79999 0,2.79999 1.3334,4.93332 3.7334,4.93332 z m 104.5331,-58.26652 c -2.5333,0 -3.7333,2 -3.7333,4.53332 0,2.4 1.4666,4.39999 3.7333,4.39999 h 27.5999 c 1.3334,0 1.8667,0.26667 1.8667,0.8 0,0.4 -0.2667,1.06666 -0.8,1.86666 -4,5.86665 -9.2,11.73331 -15.2,17.19996 -5.9999,-5.99999 -12.1333,-11.59997 -17.4666,-15.7333 -0.9333,-0.79999 -1.8666,-1.06666 -2.9333,-1.06666 -1.3333,0 -2.6667,0.66667 -3.7333,1.73333 -0.9334,0.93333 -1.4667,2.13333 -1.4667,3.19999 0,1.06667 0.4,2 1.3333,2.79999 5.4667,4.26666 11.2,9.59998 17.0667,15.3333 -8,6.26665 -16.9333,11.7333 -25.8666,15.46663 -1.8667,0.66666 -2.9334,2.26666 -2.9334,3.99999 0,0.79999 0.1334,1.59999 0.5334,2.39999 0.8,1.99999 2.4,3.06666 4.2666,3.06666 0.8,0 1.7333,-0.13333 2.5333,-0.53333 8.6667,-3.99999 17.3333,-9.19998 25.3333,-15.3333 -0.4,0.66667 -0.5333,1.6 -0.5333,2.53333 0,2.66666 1.2,4.39999 3.4666,4.39999 h 5.7334 c 0,6.13332 -0.2667,12.39997 -0.9334,18.53328 h -31.5999 c -2.2667,0 -3.6,1.86667 -3.6,4.53333 0,2.66666 1.3333,4.66665 3.6,4.66665 h 29.8666 c -1.4667,6.26665 -3.8667,11.19997 -7.3333,15.46663 -5.0667,6.13332 -12.9333,10.66664 -23.2,14.26663 -2.2666,0.93333 -3.4666,2.53332 -3.4666,4.39999 0,0.79999 0.1333,1.73333 0.5333,2.53332 0.9333,2.4 2.8,3.46666 4.8,3.46666 0.8,0 1.4667,-0.13333 2.1333,-0.4 12.8,-4.66665 22.2666,-10.9333 28.5333,-19.46661 4,-5.46666 6.6666,-12.13331 8.4,-20.26662 h 21.4666 v 26.93326 c 0,4.66666 1.6,7.59999 5.2,9.19998 2.9333,1.33333 9.0666,2.13333 19.8666,2.13333 14.2666,0 18.9333,-1.86666 21.8666,-6.13332 2,-2.93332 3.4667,-9.33331 4.1333,-14.93329 0,-0.13334 0,-0.4 0,-0.53334 0,-2.53332 -1.8666,-4.26665 -4.5333,-4.53332 -0.2667,0 -0.5333,0 -0.8,0 -2.8,0 -4.2667,1.2 -4.6667,3.86666 -0.5333,5.19999 -1.4666,9.33331 -3.0666,10.53331 -1.7333,1.46666 -6,2.26666 -14.5333,2.26666 -12.1333,0 -13.4666,-0.93333 -13.4666,-5.46666 V 862.3463 h 34.3999 c 2.2666,0 3.4666,-1.99999 3.4666,-4.66665 0,-2.66666 -1.2,-4.53333 -3.4666,-4.53333 h -34.3999 v -18.53328 h 7.8666 c 2.2667,0 3.4667,-1.73333 3.4667,-4.39999 0,-1.2 -0.2667,-2.26666 -0.6667,-2.93333 8.1333,6.26665 16.9333,11.46664 25.5999,15.3333 0.6667,0.4 1.4667,0.53333 2.1334,0.53333 1.7333,0 3.4666,-1.06666 4.3999,-3.19999 0.4,-0.8 0.6667,-1.73333 0.6667,-2.66666 0,-1.86666 -0.9333,-3.46666 -2.6666,-4.26666 -6.8,-2.93332 -13.7333,-6.66665 -20.5333,-11.06664 5.7333,-4.93332 10.9333,-10.26664 14.7999,-15.33329 0.6667,-0.8 0.9334,-1.73333 0.9334,-2.66666 0,-1.46666 -0.8,-2.79999 -2.1334,-3.73332 -1.0666,-0.66667 -2.1333,-1.06667 -3.2,-1.06667 -1.2,0 -2.4,0.53333 -3.1999,1.6 -3.6,5.06665 -8.6667,10.66664 -14.5333,15.99996 -3.7334,-2.93333 -7.3334,-5.99999 -10.6667,-9.46665 5.3333,-4.66665 10.1333,-9.7333 14.1333,-15.19996 0.5333,-0.66666 0.8,-1.46666 0.8,-2.26666 0,-1.46666 -0.8,-2.93332 -2.2666,-3.86665 -0.9334,-0.66667 -2,-0.93334 -3.0667,-0.93334 -1.3333,0 -2.6667,0.53334 -3.4667,1.73333 -3.2,4.93332 -7.5999,9.86664 -12.1333,13.99997 -2.8,-3.46666 -5.4666,-7.19998 -7.5999,-11.19997 -2.1334,-3.99999 -5.6,-5.99999 -11.8667,-5.99999 z m 13.0666,42.26656 c -0.2666,0 -0.4,0 -0.6666,0 10.2666,-8.26665 19.3333,-18.13329 25.8666,-29.06659 0.5333,-0.93333 0.9333,-1.33333 1.3333,-1.33333 0.4,0 0.8,0.4 1.3333,1.33333 6.6667,11.3333 15.8667,21.19994 26,29.19992 -0.2667,-0.13333 -0.6667,-0.13333 -1.0667,-0.13333 z m 34.9333,8.79998 v 18.53328 h -20.1333 c 0.6667,-6.13331 0.9333,-12.39996 0.9333,-18.53328 z"
         id="text115"
         style="font-size:133.333px;line-height:137.56px;font-family:'Hiragino Maru Gothic ProN';-inkscape-font-specification:'Hiragino Maru Gothic ProN, Normal';text-align:center;text-anchor:middle;fill:#ffffff;stroke:#ffffff;stroke-width:10;stroke-linecap:round;stroke-linejoin:round;paint-order:stroke fill markers"
         aria-label="未発" />
    </g>
  </g>
</svg>
