<?xml version="1.0" encoding="UTF-8" standalone="no"?>
<!-- Created with Inkscape (http://www.inkscape.org/) -->

<svg
   version="1.1"
   id="svg1"
   width="265.99951"
   height="133.86633"
   viewBox="0 0 265.99952 133.86633"
   xmlns="http://www.w3.org/2000/svg"
   xmlns:svg="http://www.w3.org/2000/svg">
  <defs
     id="defs1" />
  <g
     id="layer-MC1"
     transform="translate(-6159.8294,-786.63197)">
    <g
       id="layer7">
      <path
         d="m 6215.096,853.89853 c -11.7333,17.86662 -30.6666,33.99991 -47.4666,43.19989 -1.8666,0.93333 -2.8,2.66666 -2.8,4.53332 0,0.93333 0.2667,2 0.8,2.93333 1.3334,2.13332 3.0667,2.93332 4.6667,2.93332 1.0666,0 2,-0.26666 2.9333,-0.8 18.4,-10.26664 37.0666,-29.33325 47.7332,-46.53321 -0.5333,4.26666 -1.0666,9.99997 -1.0666,15.59996 v 36.13324 c 0,2.4 2.2666,3.59999 5.0666,3.59999 3.0667,0 5.0667,-1.19999 5.0667,-3.59999 v -36.7999 c 0,-5.73332 -0.5334,-11.19998 -1.0667,-15.3333 11.7333,19.46662 31.0666,36.93324 50.1332,46.66655 0.9333,0.53333 1.8667,0.8 2.8,0.8 1.8667,0 3.6,-0.93333 4.8,-3.2 0.4,-0.93333 0.6666,-1.86666 0.6666,-2.93332 0,-2 -0.9333,-3.86666 -2.5333,-4.66666 -17.4666,-7.86664 -36.9332,-23.0666 -49.7332,-42.53322 h 46.6666 c 2.4,0 3.7333,-2.26666 3.7333,-4.93332 0,-2.79999 -1.3333,-4.79999 -3.7333,-4.79999 h -51.7332 v -23.33327 h 44.3998 c 2.5334,0 3.7334,-2.13333 3.7334,-4.93332 0,-2.66666 -1.2,-4.66666 -3.7334,-4.66666 h -44.3998 v -15.59996 c 0,-2.53332 -2,-3.86665 -5.0667,-3.86665 -2.9333,0 -5.0666,1.33333 -5.0666,3.86665 v 15.59996 h -41.8666 c -2.4,0 -3.7333,2 -3.7333,4.66666 0,2.79999 1.3333,4.93332 3.7333,4.93332 h 41.8666 v 23.33327 h -49.1999 c -2.4,0 -3.7333,2 -3.7333,4.79999 0,2.79999 1.3333,4.93332 3.7333,4.93332 z m 114.3997,-35.86658 v -22.39994 c 0,-2.66666 -1.8667,-3.99999 -4.9333,-3.99999 -3.0667,0 -5.2,1.33333 -5.2,3.99999 v 22.39994 h -15.7333 c -2.4,0 -3.7333,1.86667 -3.7333,4.53333 0,2.66666 1.3333,4.66665 3.7333,4.66665 h 15.7333 v 29.46659 c -5.8667,2.13333 -11.8667,3.99999 -17.7333,5.73332 -1.8667,0.53333 -3.0667,1.86666 -3.0667,3.86666 0,0.53333 0.1334,1.19999 0.2667,1.99999 0.8,2.4 2.2666,3.86666 4.1333,3.86666 0.5333,0 1.0667,-0.13333 1.6,-0.26667 4.8,-1.46666 9.7333,-3.19999 14.8,-5.06665 v 32.93325 c 0,3.73332 -0.9334,4.66665 -5.3334,4.66665 -2.3999,0 -6.5333,-0.53333 -8.7999,-1.06666 -0.2667,-0.13333 -0.6667,-0.13333 -1.0667,-0.13333 -1.6,0 -3.0667,1.19999 -3.7333,3.73332 -0.1334,0.53333 -0.1334,1.06666 -0.1334,1.46666 0,2.53333 1.3334,3.99999 3.3334,4.39999 4,0.93333 8,1.33333 11.8666,1.33333 10.1333,0 14,-3.19999 14,-12.5333 v -38.7999 c 5.6,-2.26666 10.9333,-4.66665 15.5999,-7.06665 1.4667,-0.8 2.2667,-2.13333 2.2667,-3.73332 0,-0.66667 -0.1333,-1.46667 -0.4,-2.26666 -0.6667,-1.73333 -2.1333,-2.8 -3.7333,-2.8 -0.5334,0 -1.0667,0.13334 -1.6,0.4 -3.7333,1.86666 -7.8667,3.59999 -12.1333,5.33332 v -25.4666 h 14.5333 c 2.4,0 3.6,-1.99999 3.6,-4.66665 0,-2.66666 -1.2,-4.53333 -3.6,-4.53333 z m 74.2665,72.53315 c -14.9333,3.06666 -30,5.33332 -45.1999,7.19998 9.9999,-29.59992 18.6666,-65.59983 23.9999,-98.79974 0,-0.4 0,-0.66667 0,-0.93333 0,-2.4 -1.7333,-4.26666 -4.9333,-4.53333 -0.5333,-0.13333 -0.9333,-0.13333 -1.3333,-0.13333 -2.8,0 -4.6667,1.2 -4.9334,4.13332 -4.9333,33.86658 -13.3333,70.93316 -23.8666,101.33308 -2.4,0.26666 -4.8,0.53333 -7.2,0.66666 -2.3999,0.26667 -3.9999,2 -3.9999,4.93332 0,0.26667 0,0.4 0,0.66667 0.2666,3.19999 2.2666,4.93332 4.9333,4.93332 0.1333,0 0.4,0 0.5333,0 22.1333,-2.53333 43.8666,-5.99999 65.1998,-10.79997 1.0667,3.06666 2,6.13331 2.9334,9.33331 0.6666,2.13332 2.2666,3.33332 4.5333,3.33332 0.8,0 1.6,-0.13333 2.5333,-0.4 2.5333,-0.66666 3.8667,-2.39999 3.8667,-4.66665 0,-0.66667 -0.1334,-1.46667 -0.4,-2.26666 -6.1333,-18.66662 -14.1333,-37.06658 -23.3333,-54.39986 -0.9333,-1.73333 -2.4,-2.53333 -4.1333,-2.53333 -0.8,0 -1.8667,0.26667 -2.9333,0.66666 -1.7334,0.93333 -2.8,2.26666 -2.8,3.99999 0,0.66667 0.1333,1.46667 0.6666,2.26666 6,11.99997 11.3333,23.99994 15.8667,35.99991 z"
         id="text118-1"
         style="font-size:133.333px;line-height:137.56px;font-family:'Hiragino Maru Gothic ProN';-inkscape-font-specification:'Hiragino Maru Gothic ProN, Normal';text-align:center;text-anchor:middle;fill:#ffffff;stroke:#ffffff;stroke-width:10;stroke-linecap:round;stroke-linejoin:round;paint-order:stroke fill markers"
         aria-label="未払" />
    </g>
  </g>
</svg>
