<?xml version="1.0" encoding="UTF-8"?><svg id="Layer_2" xmlns="http://www.w3.org/2000/svg" viewBox="0 0 489.38 174.44"><defs><style>.cls-1{fill:#000;stroke-width:0px;}</style></defs><g id="Layer_1-2"><path class="cls-1" d="m5.19,8.49v73.31h49.98v4.71H5.19v84.16H0V3.77h58.93v4.71H5.19Z"/><path class="cls-1" d="m87.69,170.67V3.77h5.19v166.9h-5.19Z"/><path class="cls-1" d="m134.84,170.67V3.77h60.11v4.71h-54.93v73.31h51.63v4.71h-51.63v79.44h56.58v4.71h-61.76Z"/><path class="cls-1" d="m227.95,170.67V3.77h5.19v162.19h48.8v4.71h-53.98Z"/><path class="cls-1" d="m389.43,87.22c0,14.14-1.5,26.48-4.48,37.01-2.99,10.53-6.99,19.21-12.02,26.05-5.03,6.84-11,11.95-17.92,15.32-6.92,3.38-14.23,5.07-21.92,5.07h-29.7V3.77h29.94c7.7,0,14.97,1.69,21.8,5.07,6.84,3.38,12.81,8.53,17.92,15.44,5.11,6.92,9.11,15.6,12.02,26.05,2.91,10.45,4.36,22.75,4.36,36.89ZM308.57,8.49v157.47h23.81c7.23,0,13.99-1.57,20.27-4.71,6.28-3.14,11.79-7.93,16.5-14.38,4.71-6.44,8.41-14.62,11.08-24.52,2.67-9.9,4.01-21.61,4.01-35.12s-1.34-25.22-4.01-35.12c-2.67-9.9-6.37-18.07-11.08-24.52-4.71-6.44-10.22-11.23-16.5-14.38-6.29-3.14-13.05-4.71-20.27-4.71h-23.81Z"/><path class="cls-1" d="m489.38,131.54c0,6.92-.98,13.05-2.95,18.39-1.97,5.34-4.68,9.82-8.13,13.44-3.46,3.62-7.43,6.36-11.9,8.25-4.48,1.89-9.16,2.83-14.03,2.83-8.01,0-15.13-1.77-21.33-5.3-6.21-3.54-11.28-8.6-15.21-15.21l4.24-3.06c3.77,6.29,8.56,11,14.38,14.14,5.81,3.15,11.71,4.71,17.68,4.71,4.24,0,8.29-.86,12.14-2.59,3.85-1.73,7.23-4.2,10.14-7.43,2.91-3.22,5.26-7.23,7.07-12.02,1.8-4.79,2.71-10.25,2.71-16.38,0-5.66-.94-10.69-2.83-15.09-1.89-4.4-4.36-8.29-7.43-11.67-3.06-3.38-6.48-6.32-10.25-8.84-3.77-2.51-7.54-4.71-11.32-6.6-4.4-2.2-8.69-4.67-12.85-7.43-4.17-2.75-7.82-5.97-10.96-9.67-3.15-3.69-5.7-7.97-7.66-12.85-1.97-4.87-2.95-10.53-2.95-16.97,0-6.91,1.02-13,3.06-18.27,2.04-5.26,4.79-9.67,8.25-13.2,3.46-3.54,7.46-6.21,12.02-8.01,4.56-1.81,9.35-2.71,14.38-2.71,6.44,0,12.38,1.3,17.8,3.89,5.42,2.59,9.86,6.95,13.32,13.08l-3.77,3.06c-3.46-5.81-7.51-9.82-12.14-12.02-4.64-2.2-9.78-3.3-15.44-3.3-3.93,0-7.82.75-11.67,2.24-3.85,1.5-7.31,3.77-10.37,6.84-3.06,3.06-5.54,6.99-7.43,11.79-1.89,4.8-2.83,10.49-2.83,17.09,0,5.82.86,10.88,2.59,15.21,1.73,4.32,4.01,8.06,6.84,11.2,2.83,3.15,6.01,5.89,9.55,8.25s7.03,4.4,10.49,6.13c4.87,2.52,9.51,5.23,13.91,8.13,4.4,2.91,8.29,6.25,11.67,10.02,3.38,3.77,6.09,8.1,8.13,12.97,2.04,4.87,3.06,10.53,3.06,16.97Z"/></g></svg>