<?xml version="1.0" encoding="UTF-8"?><svg id="Layer_2" xmlns="http://www.w3.org/2000/svg" viewBox="0 0 85.91 85.8"><defs><style>.cls-1{fill:#fff;stroke:#fff;stroke-miterlimit:10;stroke-width:2px;}</style></defs><g id="Status_-_Pre_Enrolled"><path class="cls-1" d="M5.1,84.61c-.4,.1-.8,.2-1.1,.2-1.8,0-3-1.5-3-2.9,0-1.1,.7-2.1,2.3-2.6,28.1-8.4,37.3-26.7,37.4-51.3,0-1.7,1.4-2.6,2.7-2.6,1.4,0,2.8,.9,2.8,2.5,0,2.3-.4,6.5-.4,6.7,2.2,21.8,19.7,38.5,36.8,43.3,1.6,.4,2.3,1.7,2.3,2.9,0,1.5-1.2,3-3.1,3-3.7,0-29.9-10.5-38.1-37.2-4.6,17.6-15.9,31-38.6,38Zm7.1-43.2c-.8,.9-1.7,1.3-2.6,1.3-1.5,0-2.8-1.3-2.8-2.7,0-.7,.2-1.3,.8-1.9C14.9,30.4,22.9,17.8,27.6,2.9c.4-1.3,1.5-1.9,2.6-1.9,1.6,0,3.3,1.2,3.3,2.8,0,1.2-4.6,11.3-4.9,11.9,11.8-.1,35.7-.2,42.2-.2,5.1,0,7.9,2.7,7.9,6.3,0,4.6-7.3,15.2-11,19.7-.7,.9-1.7,1.3-2.5,1.3-1.5,0-2.9-1.1-2.9-2.4,0-.5,.2-1,.6-1.5,1.2-1.4,9.9-13.1,9.9-16.5,0-1.3-.9-2.1-3.2-2.1-3.6,0-22.2-.1-35-.1h-8.2c-3.9,7.6-8.4,14.7-14.2,21.2Z"/></g></svg>