<?xml version="1.0" encoding="UTF-8" standalone="no"?>
<!-- Created with Inkscape (http://www.inkscape.org/) -->

<svg
   version="1.1"
   id="svg1"
   width="199.96291"
   height="198.63867"
   viewBox="0 0 199.96291 198.63867"
   xmlns="http://www.w3.org/2000/svg"
   xmlns:svg="http://www.w3.org/2000/svg">
  <defs
     id="defs1" />
  <g
     id="layer-MC1"
     transform="translate(-6950.0488,-645.17773)">
    <g
       id="layer2">
      <path
         id="rect103"
         style="fill:#ffffff;stroke:none;stroke-width:0.796615;stroke-linecap:round"
         d="m 6966.0487,666.17773 c -8.864,0 -16,7.13602 -16,16 v 145.63868 c 0,8.86397 7.136,16 16,16 h 167.9629 c 8.864,0 16,-7.13602 16,-16 V 682.17773 c 0,-8.86397 -7.136,-16 -16,-16 z m 12,44.02149 h 143.9629 v 105.5957 h -143.9629 z" />
      <g
         id="rect104"
         style="stroke:none;stroke-width:1;stroke-dasharray:none"
         transform="translate(1.99985,-2)">
        <path
           style="color:#000000;fill:#00b8a9;stroke:none;stroke-width:1;stroke-linecap:round;stroke-dasharray:none"
           d="m 7005.0468,655.62073 c 9.1725,0 16.557,7.38442 16.557,16.55701 v 19.99999 c 0,9.17259 -7.3845,16.55701 -16.557,16.55701 -9.1726,0 -16.5571,-7.38442 -16.5571,-16.55701 v -19.99999 c 0,-9.17259 7.3845,-16.55701 16.5571,-16.55701 z"
           id="path108" />
        <path
           style="color:#000000;fill:#ffffff;stroke:none;stroke-width:1;stroke-linecap:round;stroke-dasharray:none"
           d="m 7005.0469,647.17773 c -13.704,0 -25,11.29605 -25,25 v 14 c 0,13.70395 11.296,25 25,25 13.7039,0 25,-11.29605 25,-25 v -14 c 0,-13.70395 -11.2961,-25 -25,-25 z m 0,16.88672 c 4.6412,0 8.1133,3.47209 8.1133,8.11328 v 14 c 0,4.6412 -3.4721,8.11329 -8.1133,8.11329 -4.6412,0 -8.1133,-3.47209 -8.1133,-8.11329 v -14 c 0,-4.64119 3.4721,-8.11328 8.1133,-8.11328 z"
           id="path109" />
      </g>
      <g
         id="rect104-2"
         transform="translate(-2.00015,-2)">
        <path
           style="color:#000000;fill:#00b8a9;stroke-linecap:round;-inkscape-stroke:none"
           d="m 7095.0136,655.62073 c 9.1725,0 16.557,7.38442 16.557,16.55701 v 19.99999 c 0,9.17259 -7.3845,16.55701 -16.557,16.55701 -9.1726,0 -16.5571,-7.38442 -16.5571,-16.55701 v -19.99999 c 0,-9.17259 7.3845,-16.55701 16.5571,-16.55701 z"
           id="path110" />
        <path
           style="color:#000000;fill:#ffffff;stroke-linecap:round;-inkscape-stroke:none"
           d="m 7095.0137,647.17773 c -13.704,0 -25,11.29605 -25,25 v 14 c 0,13.70395 11.296,25 25,25 13.7039,0 25,-11.29605 25,-25 v -14 c 0,-13.70395 -11.2961,-25 -25,-25 z m 0,16.88672 c 4.6412,0 8.1133,3.47209 8.1133,8.11328 v 14 c 0,4.6412 -3.4721,8.11329 -8.1133,8.11329 -4.6412,0 -8.1133,-3.47209 -8.1133,-8.11329 v -14 c 0,-4.64119 3.4721,-8.11328 8.1133,-8.11328 z"
           id="path111" />
      </g>
    </g>
  </g>
</svg>
