<?xml version="1.0" encoding="UTF-8"?><svg id="Layer_2" xmlns="http://www.w3.org/2000/svg" viewBox="0 0 86.51 88.81"><defs><style>.cls-1{fill:#fff;stroke:#fff;stroke-miterlimit:10;stroke-width:2px;}</style></defs><g id="Status_-_Pre_Enrolled"><path class="cls-1" d="M40.5,47.9C27.4,66.6,7.1,81.11,3.9,81.11c-1.7,0-2.9-1.3-2.9-2.7,0-.8,.5-1.8,1.7-2.4,13.4-7,26.4-19.1,35.4-32.3l-31.8,.2c-1.6,0-2.3-1.1-2.3-2.3s.8-2.5,2.3-2.5H40.6l-.1-15.4H14.3c-1.5,0-2.3-1.2-2.3-2.4s.8-2.4,2.3-2.4h26.2l-.1-15.6c0-1.5,1.3-2.3,2.7-2.3,1.3,0,2.6,.8,2.6,2.3l-.1,15.6h26.6c1.5,0,2.2,1.2,2.2,2.4s-.7,2.4-2.2,2.4h-26.6l-.1,15.4h35.1c1.5,0,2.2,1.2,2.2,2.5,0,1.1-.7,2.3-2.1,2.3l-33.1-.2c9.6,12.8,23.4,24.2,36.3,30.9,1.2,.6,1.6,1.5,1.6,2.4,0,1.5-1.4,3.1-3.2,3.1-2.8,0-22.2-12.8-36.8-32.5,.1,12.4,.2,38,.2,38,0,1.5-1.3,2.2-2.7,2.2-1.3,0-2.7-.7-2.7-2.2l.2-37.7Z"/></g></svg>