<?xml version="1.0" encoding="UTF-8"?><svg id="Layer_2" xmlns="http://www.w3.org/2000/svg" viewBox="0 0 73.7 83.41"><defs><style>.cls-1{fill:#fff;stroke:#fff;stroke-miterlimit:10;stroke-width:2px;}</style></defs><g id="Status_-_Pre_Enrolled"><path class="cls-1" d="M66.8,52.2c0-1.6,1.3-2.4,2.7-2.4s2.9,.9,3,2.6c.1,3.1,.2,7.1,.2,11,0,2.5,0,4.9-.1,7-.2,7.6-5,11.5-12,11.7-7.4,.2-17.1,.3-26.3,.3-8.3,0-16.3-.1-22.2-.3-7.1-.3-10.9-4-11-11.4,0-2.8-.1-6-.1-9.3s.1-6.5,.1-9.2c0-1.8,1.5-2.7,2.8-2.7,1.4,0,2.8,.9,2.8,2.4v.1c-.1,3.5-.1,8.7-.1,12.9,0,8.3,0,11.9,7.6,12.2,5.2,.2,12.1,.3,19.3,.3V41c-6.1,0-12-.1-17.5-.3-7.1-.3-11-3.9-11.1-11.2,0-2.8-.1-5.6-.1-8.5s.1-5.7,.1-8.4c0-1.8,1.4-2.6,2.8-2.6s2.8,.8,2.8,2.4v.1c-.1,3.5-.1,7.8-.1,11.5,0,8.4,.3,11.6,7.6,11.9,4.9,.2,10.2,.3,15.5,.3l-.1-32.6c0-1.7,1.5-2.6,3-2.6,1.4,0,2.9,.9,2.9,2.6l-.1,32.6c5.5,0,11-.1,15.9-.3,8.2-.3,8.2-5.2,8.2-13,0-3.5-.2-7.1-.3-10.1v-.1c0-1.5,1.4-2.3,2.8-2.3s2.9,.8,2.9,2.6c.1,2.5,.2,5.2,.2,7.9s-.1,5.5-.2,8.3c-.2,7.5-4.8,11.2-12,11.5-5.8,.2-11.7,.3-17.5,.3v36.4c7.4,0,14.5-.1,19.7-.3,8-.3,8.2-4.8,8.2-13.6,0-4-.2-8.2-.3-11.2v-.1Z"/></g></svg>