<?xml version="1.0" encoding="UTF-8" standalone="no"?>
<!-- Created with Inkscape (http://www.inkscape.org/) -->

<svg
   version="1.1"
   id="svg1"
   width="462.15381"
   height="681.17578"
   viewBox="0 0 462.15383 681.17581"
   xmlns="http://www.w3.org/2000/svg"
   xmlns:svg="http://www.w3.org/2000/svg">
  <defs
     id="defs1">
    <clipPath
       clipPathUnits="userSpaceOnUse"
       id="clipPath112">
      <path
         d="M 0,1000 H 1000 V 0 H 0 Z"
         transform="translate(-393.91428,-407.19941)"
         id="path112" />
    </clipPath>
    <clipPath
       clipPathUnits="userSpaceOnUse"
       id="clipPath114">
      <path
         d="M 0,1000 H 1000 V 0 H 0 Z"
         transform="translate(-458.43131,-460.22491)"
         id="path114" />
    </clipPath>
    <clipPath
       clipPathUnits="userSpaceOnUse"
       id="clipPath116">
      <path
         d="M 0,1000 H 1000 V 0 H 0 Z"
         transform="translate(-350.46671,-244.17918)"
         id="path116" />
    </clipPath>
    <clipPath
       clipPathUnits="userSpaceOnUse"
       id="clipPath118">
      <path
         d="M 0,1000 H 1000 V 0 H 0 Z"
         transform="translate(-566.34769,-433.34551)"
         id="path118" />
    </clipPath>
    <clipPath
       clipPathUnits="userSpaceOnUse"
       id="clipPath120">
      <path
         d="M 0,1000 H 1000 V 0 H 0 Z"
         transform="translate(-415.90774,-323.38821)"
         id="path120" />
    </clipPath>
    <clipPath
       clipPathUnits="userSpaceOnUse"
       id="clipPath122">
      <path
         d="M 0,1000 H 1000 V 0 H 0 Z"
         transform="translate(-602.70679,-323.38821)"
         id="path122" />
    </clipPath>
    <clipPath
       clipPathUnits="userSpaceOnUse"
       id="clipPath126">
      <path
         d="M 0,1000 H 1000 V 0 H 0 Z"
         transform="translate(-618.33199,-606.12342)"
         id="path126" />
    </clipPath>
    <clipPath
       clipPathUnits="userSpaceOnUse"
       id="clipPath128">
      <path
         d="M 0,1000 H 1000 V 0 H 0 Z"
         transform="translate(-483.25189,-575.41601)"
         id="path128" />
    </clipPath>
    <clipPath
       clipPathUnits="userSpaceOnUse"
       id="clipPath130">
      <path
         d="M 0,1000 H 1000 V 0 H 0 Z"
         transform="translate(-568.16449,-575.91662)"
         id="path130" />
    </clipPath>
    <clipPath
       clipPathUnits="userSpaceOnUse"
       id="clipPath132">
      <path
         d="M 0,1000 H 1000 V 0 H 0 Z"
         transform="translate(-443.01724,-593.76681)"
         id="path132" />
    </clipPath>
    <clipPath
       clipPathUnits="userSpaceOnUse"
       id="clipPath134">
      <path
         d="M 0,1000 H 1000 V 0 H 0 Z"
         transform="translate(-574.45924,-592.55901)"
         id="path134" />
    </clipPath>
    <clipPath
       clipPathUnits="userSpaceOnUse"
       id="clipPath136">
      <path
         d="M 0,1000 H 1000 V 0 H 0 Z"
         transform="translate(-513.18371,-556.73372)"
         id="path136" />
    </clipPath>
    <clipPath
       clipPathUnits="userSpaceOnUse"
       id="clipPath142">
      <path
         d="M 0,1000 H 1000 V 0 H 0 Z"
         transform="translate(-472.86619,-484.33921)"
         id="path142" />
    </clipPath>
  </defs>
  <g
     id="layer1"
     transform="translate(-6036.331,-1998.6858)">
    <g
       id="g326">
      <path
         id="path291"
         d="M 0,0 H 233.346 V 129.286 H -5.913 Z"
         style="fill:#a55b4b;fill-opacity:1;fill-rule:nonzero;stroke:none"
         transform="matrix(1.3333333,0,0,-1.3333333,6121.196,2456.1457)"
         clip-path="url(#clipPath112)" />
      <path
         id="path292"
         d="M 0,0 -16.214,-135.406 H 116.095 L 99.881,0 Z"
         style="fill:#e8c6ba;fill-opacity:1;fill-rule:nonzero;stroke:#000000;stroke-width:9.533;stroke-linecap:butt;stroke-linejoin:miter;stroke-miterlimit:10;stroke-dasharray:none;stroke-opacity:1"
         transform="matrix(1.3333333,0,0,-1.3333333,6207.2187,2385.4451)"
         clip-path="url(#clipPath114)" />
      <path
         id="path293"
         d="m 0,0 c -2.711,19.506 -4.433,45.935 -4.758,73.396 0,43.562 20.745,70.108 38.149,84.697 21.794,18.27 46.551,25.462 63.614,26.236 35.924,-80.492 90.65161,-75.52462 121.868,-0.0188 19.541,-1.152 44.654,-13.11625 60.172,-24.94225 18.998,-14.478 41.642,-40.515 41.664,-82.361 C 320.038,52.524 318.29,25.355 315.765,0 Z"
         style="fill:#89ac46;fill-opacity:1;fill-rule:nonzero;stroke:none"
         transform="matrix(1.3333333,0,0,-1.3333333,6063.2659,2673.506)"
         clip-path="url(#clipPath116)" />
      <path
         id="path294"
         d="m 0,0 c -38.063514,-75.222315 -79.314795,-75.892596 -115.812,0 -39.851,0 -109.594,-34.512 -109.594,-115.827 0.305,-25.62 1.888,-55.276 5.405,-78.106 h 324.19 c 2.721,26.173 4.688,55.458 5.405,81.709 C 109.594,-31.945 30.016,0 0,0 m -121.863,-9.832 c 34.688,-77.272 90.966,-78.191 127.728,-0.121 13.052,-1.678 34.613,-8.55 54.41,-23.637 18.131,-13.818 39.741,-38.649 39.786,-78.507 -0.631,-22.973 -2.215,-48.325 -4.502,-72.303 h -307.263 c -2.367,18.817 -3.865,43.263 -4.169,68.63 0.017,41.748 19.826,67.113 36.444,81.044 19.5,16.346 41.912,23.422 57.566,24.894"
         style="fill:#000000;fill-opacity:1;fill-rule:nonzero;stroke:none"
         transform="matrix(1.3333333,0,0,-1.3333333,6351.1072,2421.2843)"
         clip-path="url(#clipPath118)" />
      <path
         id="path295"
         d="M 0,0 V -76.166"
         style="fill:none;stroke:#000000;stroke-width:9.533;stroke-linecap:round;stroke-linejoin:miter;stroke-miterlimit:10;stroke-dasharray:none;stroke-opacity:1"
         transform="matrix(1.3333333,0,0,-1.3333333,6150.5206,2567.894)"
         clip-path="url(#clipPath120)" />
      <path
         id="path296"
         d="M 0,0 V -76.166"
         style="fill:none;stroke:#000000;stroke-width:9.533;stroke-linecap:round;stroke-linejoin:miter;stroke-miterlimit:10;stroke-dasharray:none;stroke-opacity:1"
         transform="matrix(1.3333333,0,0,-1.3333333,6399.586,2567.894)"
         clip-path="url(#clipPath122)" />
      <path
         id="path298"
         d="m 0,0 c -2.036,0.476 -4.122,0.537 -6.217,0.241 -10.672,74.988 -45.646,104.778 -103.396,104.778 -57.751,0 -92.725,-29.79 -103.397,-104.778 -2.095,0.296 -4.181,0.235 -6.217,-0.241 -13.81,-3.231 -20.132,-23.884 -14.119,-46.13 4.22,-15.617 13.398,-27.856 23.27,-32.654 14.835,-66.81 60.549,-102.017 100.463,-102.017 38.382,0 85.627,35.207 100.462,102.017 9.872,4.798 19.05,17.037 23.27,32.654 C 20.132,-23.884 13.81,-3.231 0,0"
         style="fill:#e8c6ba;fill-opacity:1;fill-rule:nonzero;stroke:#000000;stroke-width:9.271;stroke-linecap:butt;stroke-linejoin:miter;stroke-miterlimit:10;stroke-dasharray:none;stroke-opacity:1"
         transform="matrix(1.3333333,0,0,-1.3333333,6420.4196,2190.9137)"
         clip-path="url(#clipPath126)" />
      <path
         id="path299"
         d="m 0,0 c 0,-10.24 -7.264,-18.541 -16.224,-18.541 -8.96,0 -16.223,8.301 -16.223,18.541 0,10.24 7.263,18.541 16.223,18.541 C -7.264,18.541 0,10.24 0,0"
         style="fill:#006a71;fill-opacity:1;fill-rule:nonzero;stroke:none"
         transform="matrix(1.3333333,0,0,-1.3333333,6240.3128,2231.8569)"
         clip-path="url(#clipPath128)" />
      <path
         id="path300"
         d="m 0,0 c 0,-10.24 -7.264,-18.541 -16.224,-18.541 -8.96,0 -16.223,8.301 -16.223,18.541 0,10.24 7.263,18.541 16.223,18.541 C -7.264,18.541 0,10.24 0,0"
         style="fill:#006a71;fill-opacity:1;fill-rule:nonzero;stroke:none"
         transform="matrix(1.3333333,0,0,-1.3333333,6353.5296,2231.1895)"
         clip-path="url(#clipPath130)" />
      <path
         id="path301"
         d="m 0,0 c 1.949,3.068 4.587,5.822 7.77,7.856 3.178,2.038 6.836,3.369 10.566,3.938 3.733,0.573 7.537,0.54 11.175,-0.196 3.648,-0.731 7.121,-1.917 10.311,-3.98 C 40.46,7.205 40.643,6.352 40.23,5.714 39.909,5.217 39.321,4.996 38.775,5.117 L 38.664,5.143 C 35.408,5.873 32.051,6.551 28.771,6.942 25.48,7.305 22.189,7.536 18.958,7.157 17.346,6.974 15.739,6.72 14.189,6.257 12.64,5.805 11.089,5.294 9.64,4.545 6.673,3.167 4.005,1.129 1.493,-1.208 L 1.474,-1.226 C 1.083,-1.589 0.472,-1.567 0.108,-1.176 -0.198,-0.847 -0.23,-0.362 0,0"
         style="fill:#a55b4b;fill-opacity:1;fill-rule:nonzero;stroke:none"
         transform="matrix(1.3333333,0,0,-1.3333333,6186.6666,2207.3892)"
         clip-path="url(#clipPath132)" />
      <path
         id="path302"
         d="m 0,0 c -2.512,2.337 -5.18,4.375 -8.147,5.753 -1.45,0.749 -3.001,1.26 -4.55,1.712 -1.55,0.463 -3.157,0.717 -4.768,0.9 -3.231,0.379 -6.522,0.148 -9.814,-0.216 -3.279,-0.39 -6.637,-1.068 -9.892,-1.798 L -37.28,6.326 c -0.742,-0.166 -1.478,0.3 -1.645,1.042 -0.13,0.577 0.127,1.153 0.596,1.458 3.19,2.063 6.662,3.249 10.311,3.98 3.638,0.736 7.442,0.769 11.174,0.196 3.73,-0.569 7.389,-1.9 10.566,-3.938 C -3.095,7.03 -0.457,4.276 1.492,1.208 1.779,0.757 1.646,0.16 1.195,-0.126 0.816,-0.367 0.333,-0.31 0.019,-0.018 Z"
         style="fill:#a55b4b;fill-opacity:1;fill-rule:nonzero;stroke:none"
         transform="matrix(1.3333333,0,0,-1.3333333,6361.9226,2208.9996)"
         clip-path="url(#clipPath134)" />
      <path
         id="path303"
         d="m 0,0 c 0,0 -17.95,-19.113 -13.056,-27.007 3.589,-5.788 12.515,-7.092 12.515,-7.092"
         style="fill:none;stroke:#000000;stroke-width:4.635;stroke-linecap:round;stroke-linejoin:miter;stroke-miterlimit:10;stroke-dasharray:none;stroke-opacity:1"
         transform="matrix(1.3333333,0,0,-1.3333333,6280.2219,2256.7667)"
         clip-path="url(#clipPath136)" />
      <path
         id="path306"
         d="M 0,0 C 0,0 8.929,-9.458 34.331,-9.458 59.732,-9.458 68.661,0 68.661,0"
         style="fill:none;stroke:#000000;stroke-width:4.22;stroke-linecap:round;stroke-linejoin:miter;stroke-miterlimit:10;stroke-dasharray:none;stroke-opacity:1"
         transform="matrix(1.3333333,0,0,-1.3333333,6226.4652,2353.2927)"
         clip-path="url(#clipPath142)" />
      <path
         style="font-variation-settings:normal;opacity:1;vector-effect:none;fill:#a55b4b;fill-opacity:1;stroke:#000000;stroke-width:12.3613;stroke-linecap:butt;stroke-linejoin:miter;stroke-miterlimit:10;stroke-dasharray:none;stroke-dashoffset:0;stroke-opacity:1;-inkscape-stroke:none;stop-color:#000000;stop-opacity:1"
         d="m 6252.7565,2004.891 c 133.5427,1.054 253.7119,27.9995 238.1799,439.7698 -31.0673,23.3052 -66.219,38.2653 -122.6239,39.9196 36.981,-159.8501 44.4638,-219.7916 20.178,-346.5879 -70.1548,20.1096 -170.4224,29.9043 -240.5744,0.9171 -3.1534,130.5085 6.8083,201.472 27.4561,346.698 -43.2515,6.8141 -93.117,-0.2256 -131.6326,-17.696 -12.6873,-432.2275 75.4742,-464.0746 209.0169,-463.0206 z"
         id="path309" />
    </g>
    <path
       style="font-variation-settings:normal;display:none;vector-effect:none;fill:#a55b4b;fill-opacity:1;stroke:#000000;stroke-width:12.3613;stroke-linecap:butt;stroke-linejoin:miter;stroke-miterlimit:10;stroke-dasharray:none;stroke-dashoffset:0;stroke-opacity:1;-inkscape-stroke:none;stop-color:#000000"
       d="m 6250.7932,2004.0236 c 16.6928,0.1318 33.2528,-1.4911 49.4359,-0.1078 16.1831,1.3832 33.9892,-0.2274 49.1745,3.9289 15.1853,4.1562 27.7497,16.0793 41.4491,24.53 13.6995,8.4506 28.534,15.4289 40.2596,29.6954 11.7256,14.2665 18.3422,33.8214 27.6059,55.4252 9.2637,21.6039 21.1744,47.2568 27.4882,77.7194 6.3138,30.4627 13.0305,65.7351 15.9063,106.5779 2.8758,40.8429 13.0504,108.3108 -1.1396,140.0008 -4.0622,9.072 -14.4139,13.131 -23.8971,17.8367 -9.4831,4.7056 -21.8023,2.8122 -32.9132,6.2422 -11.111,3.43 -22.2256,13.4248 -35.6641,18.1826 -12.0731,4.2744 -32.3342,10.9592 -40.1495,-2.3419 -10.3449,-17.6063 14.5219,-73.6808 19.8569,-103.7604 5.335,-30.0796 14.7284,-56.5206 16.2072,-81.9287 1.4788,-25.4081 -4.957,-49.7833 -7.2804,-75.7312 -2.3233,-25.9479 -4.5342,-53.4685 -10.6057,-85.1676 -17.5387,5.0274 -36.9594,9.0351 -57.3212,11.7659 -20.3617,2.7307 -41.6644,6.1845 -62.9671,6.104 -21.3026,-0.081 -42.6051,-7.6953 -62.9665,-11.1017 -20.3614,-3.4064 -39.7816,-4.6043 -57.3196,-11.8511 -0.7883,32.6271 -4.882,61.9077 -4.2564,89.7449 0.6256,27.8373 7.9704,54.2312 10.059,81.085 2.0886,26.8539 -1.079,54.1676 2.5217,83.8446 3.6008,29.6769 33.7022,83.0068 17.1318,98.0235 -7.5704,6.8606 -21.4818,5.6939 -33.7783,5.7192 -12.2964,0.025 -25.8262,-6.279 -38.4199,-7.825 -12.5936,-1.546 -25.4333,4.5136 -37.1378,1.5034 -11.7044,-3.0103 -18.0301,-2.9408 -32.2966,-17.0936 -16.2425,-16.1131 -0.9575,-101.8009 1.5938,-144.0352 2.5514,-42.2343 12.4263,-78.9304 17.5352,-110.806 5.1089,-31.8756 5.4518,-58.9307 12.9391,-81.883 7.4874,-22.9524 18.1192,-41.802 27.8059,-57.2667 9.6866,-15.4646 18.4282,-27.5442 30.1351,-36.9565 11.7069,-9.4123 28.3791,-14.1574 41.9271,-18.9529 13.548,-4.7955 25.9717,-9.6414 41.1817,-11.2556 15.21,-1.6141 31.2062,0 47.899,0.1353 z"
       id="path309-4" />
  </g>
</svg>
