<?xml version="1.0" encoding="UTF-8"?><svg id="Layer_2" xmlns="http://www.w3.org/2000/svg" viewBox="0 0 335 517.1"><defs><style>.cls-1,.cls-2,.cls-3,.cls-4,.cls-5,.cls-6{stroke:#000;stroke-miterlimit:10;}.cls-1,.cls-5{fill:#e8c6ba;}.cls-1,.cls-6{stroke-width:9.53px;}.cls-7{fill:#ff9fd4;}.cls-8{fill:#e84393;}.cls-9{fill:#ff7675;}.cls-10,.cls-4{fill:#261212;}.cls-2{stroke-width:4.22px;}.cls-2,.cls-3,.cls-6{fill:none;stroke-linecap:round;}.cls-3{stroke-width:4.64px;}.cls-4,.cls-5{stroke-width:9.27px;}</style></defs><g id="Endo__Machiko"><path id="hair" class="cls-4" d="M172.24,105.57c128.16,0,111.75,193.78,69.53,274.05-94.13-25.05-84.12,29.44-145.82-15.63C11.05,210.27,39.57,105.57,172.24,105.57Z"/><polygon id="neck" class="cls-1" points="117.49 296.29 101.28 431.69 233.58 431.69 217.37 296.29 117.49 296.29"/><g id="jacket"><path class="cls-8" d="M9.53,512.33c-2.71-19.5-4.43-45.93-4.76-73.4,0-43.56,20.75-70.11,38.15-84.7,21.88-18.34,46.74-25.52,63.81-26.24,23.44,44.11,58.78,49.25,60.3,49.45l.5,.06,.5-.04c1.32-.1,32.08-3.04,60.06-49.46,19.59,1.04,44.89,13.07,60.49,24.96,19,14.48,41.64,40.52,41.66,82.36-.67,24.48-2.42,51.65-4.94,77.01H9.53Z"/><path d="M104,332.96c24.59,43.75,60.81,49,62.4,49.21l.99,.13,1-.08c1-.08,10.14-.98,22.69-8.38,14.72-8.68,27.99-22.39,39.5-40.8,12.97,1.52,34.95,8.37,55.09,23.72,18.13,13.82,39.74,38.65,39.79,78.51-.63,22.97-2.21,48.32-4.5,72.3H13.7c-2.37-18.82-3.87-43.26-4.17-68.63,.02-41.75,19.83-67.11,36.44-81.04,19.69-16.51,42.36-23.56,58.03-24.94m121.4-9.79c-27.42,47.16-57.76,49.55-57.76,49.55,0,0-35.51-4.67-58.05-49.55-39.85,0-109.59,34.51-109.59,115.83,.3,25.62,1.89,55.28,5.41,78.11H329.6c2.72-26.17,4.69-55.46,5.4-81.71,0-80.28-79.58-112.22-109.59-112.22h0Z"/></g><line id="left_arm" class="cls-6" x1="74.97" y1="433.12" x2="74.97" y2="509.29"/><line id="right_arm" class="cls-6" x1="261.77" y1="433.12" x2="261.77" y2="509.29"/><g id="jacket-2"><path d="M104,332.96c24.59,43.75,60.81,49,62.4,49.21l.99,.13,1-.08c1-.08,10.14-.98,22.69-8.38,14.72-8.68,27.99-22.39,39.5-40.8,12.97,1.52,34.95,8.37,55.09,23.72,18.13,13.82,39.74,38.65,39.79,78.51-.63,22.97-2.21,48.32-4.5,72.3H13.7c-2.37-18.82-3.87-43.26-4.17-68.63,.02-41.75,19.83-67.11,36.44-81.04,19.69-16.51,42.36-23.56,58.03-24.94m121.4-9.79c-27.42,47.16-57.76,49.55-57.76,49.55,0,0-35.51-4.67-58.05-49.55-39.85,0-109.59,34.51-109.59,115.83,.3,25.62,1.89,55.28,5.41,78.11H329.6c2.72-26.17,4.69-55.46,5.4-81.71,0-80.28-79.58-112.22-109.59-112.22h0Z"/></g><path id="face" class="cls-5" d="M277.39,150.39c-2.04-.48-4.12-.54-6.22-.24-10.67-74.99-45.65-104.78-103.4-104.78s-92.72,29.79-103.4,104.78c-2.1-.3-4.18-.24-6.22,.24-13.81,3.23-20.13,23.88-14.12,46.13,4.22,15.62,13.4,27.86,23.27,32.65,14.83,66.81,60.55,102.02,100.46,102.02s85.63-35.21,100.46-102.02c9.87-4.8,19.05-17.04,23.27-32.65,6.01-22.25-.31-42.9-14.12-46.13Z"/><ellipse id="left_eye" class="cls-10" cx="126.09" cy="181.09" rx="16.22" ry="18.54"/><ellipse id="right_eye" class="cls-10" cx="211" cy="180.59" rx="16.22" ry="18.54"/><g id="left_eyebrow"><path class="cls-10" d="M102.08,162.74c8.02-13.21,27.27-15.59,39.82-7.62,1.32,.87,.35,2.93-1.16,2.47-13.47-3.2-26.58-4.17-37.17,6.35-.79,.8-2.11-.27-1.49-1.21h0Z"/></g><g id="left_eyebrow-2"><path class="cls-10" d="M233.52,163.95c-7.42-7.39-17.15-9.63-27.28-8.15-3.32,.39-6.71,1.08-10,1.82-1.48,.34-2.32-1.69-1.05-2.5,12.55-7.97,31.81-5.59,39.82,7.62,.61,.95-.7,2-1.49,1.21h0Z"/></g><path id="nose" class="cls-3" d="M172.24,199.78s-17.95,19.11-13.06,27.01c3.59,5.79,12.51,7.09,12.51,7.09"/><path id="hair-2" class="cls-4" d="M110.43,19.73c48.69-16.91,106.56-27.9,156.4,13.78,48.46,40.53,84.03,206.37,7.88,326.02,19.16-88.98,.12-201.37-16.25-226.73-34.01-11.11-66.22-8.94-105.25,20.17,5.85-22.6,20.75-36.23,54.58-52.57-57.26,5.42-100.74,40.8-126.76,90.06-3.08-27.37-1.24-41.51,13.61-73.89-49.15,50.44-52.66,146.33-55.27,196.18C-4.17,169.63,39.46,19.73,110.43,19.73Z"/><path id="lipstick" class="cls-7" d="M131,268.07s2.45,16.99,34.76,18.69c32.31,1.69,36.52-14.95,36.52-14.95,0,0-13.33,7.69-36.08,6.5s-35.2-10.23-35.2-10.23Z"/><path id="mouth" class="cls-2" d="M132.39,267.39s8.42,9.91,33.79,11.24c25.37,1.33,34.78-7.65,34.78-7.65"/><g><path class="cls-9" d="M273,170.32c-.9,0-1.77-.18-2.59-.55-3.24-1.43-4.72-5.23-3.29-8.48l7.36-16.67-17.05,6.44c-.73,.28-1.49,.42-2.27,.42-2.66,0-5.08-1.67-6.01-4.16-.61-1.61-.55-3.35,.16-4.92s1.98-2.76,3.59-3.37l28.86-10.89,12.46-28.23c1.03-2.33,3.34-3.83,5.88-3.83,.9,0,1.77,.18,2.59,.55,3.24,1.43,4.72,5.23,3.29,8.48l-7.36,16.67,17.05-6.44c.73-.28,1.49-.42,2.27-.42,2.66,0,5.08,1.67,6.02,4.16,1.25,3.32-.43,7.03-3.74,8.29l-28.87,10.9-12.46,28.23c-1.03,2.33-3.34,3.84-5.88,3.84h0Z"/><path d="M300.09,98.57c.53,0,1.07,.11,1.58,.34,1.99,.88,2.89,3.2,2.01,5.18l-9.76,22.13,22.63-8.54c.46-.17,.93-.25,1.39-.25,1.59,0,3.08,.97,3.68,2.54,.77,2.03-.26,4.3-2.29,5.06l-29.85,11.27-12.88,29.19c-.65,1.47-2.09,2.34-3.6,2.34-.53,0-1.07-.11-1.58-.34-1.99-.88-2.88-3.2-2.01-5.18l9.76-22.13-22.63,8.54c-.46,.17-.93,.25-1.39,.25-1.59,0-3.08-.97-3.68-2.54-.77-2.03,.26-4.3,2.29-5.06l29.85-11.27,12.88-29.19c.65-1.47,2.09-2.34,3.6-2.34m0-5h0c-3.54,0-6.74,2.09-8.17,5.33l-12.03,27.27-27.89,10.52c-2.23,.84-4,2.5-4.98,4.68-.98,2.17-1.06,4.6-.22,6.83,1.3,3.46,4.66,5.78,8.35,5.78,1.08,0,2.14-.19,3.15-.58l11.47-4.33-4.95,11.22c-.96,2.18-1.02,4.61-.16,6.83,.86,2.22,2.54,3.98,4.72,4.94,1.14,.51,2.36,.76,3.6,.76,3.54,0,6.74-2.09,8.17-5.33l12.03-27.27,27.89-10.52c4.61-1.74,6.94-6.9,5.2-11.51-1.3-3.46-4.66-5.78-8.35-5.78-1.08,0-2.14,.19-3.15,.58l-11.47,4.33,4.95-11.22c.96-2.18,1.02-4.61,.16-6.83-.86-2.22-2.54-3.98-4.72-4.94-1.14-.5-2.36-.76-3.6-.76h0Z"/></g></g></svg>