<?xml version="1.0" encoding="UTF-8" standalone="no"?>
<!-- Created with Inkscape (http://www.inkscape.org/) -->

<svg
   version="1.1"
   id="svg1"
   width="75.704102"
   height="75.704254"
   viewBox="0 0 75.704104 75.704252"
   sodipodi:docname="Fields Admin Assets.svg"
   inkscape:version="1.4 (e7c3feb1, 2024-10-09)"
   xmlns:inkscape="http://www.inkscape.org/namespaces/inkscape"
   xmlns:sodipodi="http://sodipodi.sourceforge.net/DTD/sodipodi-0.dtd"
   xmlns="http://www.w3.org/2000/svg"
   xmlns:svg="http://www.w3.org/2000/svg">
  <defs
     id="defs1">
    <clipPath
       clipPathUnits="userSpaceOnUse"
       id="clipPath96-9-1">
      <path
         d="M 0,768 H 1366 V 0 H 0 Z"
         transform="translate(-768.51759,-472.93731)"
         id="path96-7-2" />
    </clipPath>
    <clipPath
       clipPathUnits="userSpaceOnUse"
       id="clipPath96-9-1-9">
      <path
         d="M 0,768 H 1366 V 0 H 0 Z"
         transform="translate(-768.51759,-472.93731)"
         id="path96-7-2-0" />
    </clipPath>
  </defs>
  <sodipodi:namedview
     id="namedview1"
     pagecolor="#505050"
     bordercolor="#eeeeee"
     borderopacity="1"
     inkscape:showpageshadow="0"
     inkscape:pageopacity="0"
     inkscape:pagecheckerboard="0"
     inkscape:deskcolor="#505050"
     inkscape:zoom="0.54917507"
     inkscape:cx="2684.0257"
     inkscape:cy="1342.9233"
     inkscape:window-width="1920"
     inkscape:window-height="1080"
     inkscape:window-x="1920"
     inkscape:window-y="0"
     inkscape:window-maximized="0"
     inkscape:current-layer="layer-MC1"
     showgrid="false">
    <inkscape:page
       x="0"
       y="0"
       width="75.704102"
       height="75.704254"
       id="page2"
       margin="0"
       bleed="0" />
  </sodipodi:namedview>
  <g
     id="layer-MC1"
     inkscape:groupmode="layer"
     inkscape:label="Toolbar Icons"
     transform="translate(-6236.8186,-226.69787)">
    <g
       inkscape:groupmode="layer"
       id="layer1"
       inkscape:label="Close Icon"
       inkscape:export-filename="../../../Users/hmatsuuchi/Desktop/layer1.svg"
       inkscape:export-xdpi="96"
       inkscape:export-ydpi="96">
      <path
         id="path95-8-1"
         d="m 0,0 h -62.367 c -3.866,0 -7,3.134 -7,7 0,3.866 3.134,7 7,7 H 0 C 3.866,14 7,10.866 7,7 7,3.134 3.866,0 0,0"
         style="fill:#f6416c;fill-opacity:1;fill-rule:nonzero;stroke:none"
         transform="matrix(-0.94280902,0.94280902,0.75424719,0.75424719,6239.991,288.67037)"
         clip-path="url(#clipPath96-9-1)"
         inkscape:export-filename="../../../Users/hmatsuuchi/Desktop/path95-8-1.svg"
         inkscape:export-xdpi="96"
         inkscape:export-ydpi="96" />
      <path
         id="path95-8-1-3"
         d="m 0,0 h -62.367 c -3.866,0 -7,3.134 -7,7 0,3.866 3.134,7 7,7 H 0 C 3.866,14 7,10.866 7,7 7,3.134 3.866,0 0,0"
         style="fill:#f6416c;fill-opacity:1;fill-rule:nonzero;stroke:none"
         transform="matrix(0.94280902,0.94280902,0.75424719,-0.75424719,6298.7911,299.22977)"
         clip-path="url(#clipPath96-9-1-9)" />
    </g>
  </g>
</svg>
